<svg id="Layer_1" enable-background="new 0 0 256 256" height="512" viewBox="0 0 256 256" width="512" xmlns="http://www.w3.org/2000/svg"><path d="m211 248h-166c-9.941 0-18-8.059-18-18v-204c0-9.941 8.059-18 18-18h166c9.941 0 18 8.059 18 18v204c0 9.941-8.059 18-18 18z" fill="#a4c9ff"/><path d="m44.25 112v-78c0-3.314 2.686-6 6-6h155.5c3.314 0 6 2.686 6 6v78c0 3.314-2.686 6-6 6h-155.5c-3.314 0-6-2.686-6-6z" fill="#4671c6"/><path d="m62.25 161.5h-15c-1.657 0-3-1.343-3-3v-15c0-1.657 1.343-3 3-3h15c1.657 0 3 1.343 3 3v15c0 1.657-1.343 3-3 3z" fill="#4671c6"/><path d="m94.25 161.5h-15c-1.657 0-3-1.343-3-3v-15c0-1.657 1.343-3 3-3h15c1.657 0 3 1.343 3 3v15c0 1.657-1.343 3-3 3z" fill="#4671c6"/><path d="m126.25 161.5h-15c-1.657 0-3-1.343-3-3v-15c0-1.657 1.343-3 3-3h15c1.657 0 3 1.343 3 3v15c0 1.657-1.343 3-3 3z" fill="#4671c6"/><path d="m62.25 191.5h-15c-1.657 0-3-1.343-3-3v-15c0-1.657 1.343-3 3-3h15c1.657 0 3 1.343 3 3v15c0 1.657-1.343 3-3 3z" fill="#4671c6"/><path d="m94.25 191.5h-15c-1.657 0-3-1.343-3-3v-15c0-1.657 1.343-3 3-3h15c1.657 0 3 1.343 3 3v15c0 1.657-1.343 3-3 3z" fill="#4671c6"/><path d="m126.25 191.5h-15c-1.657 0-3-1.343-3-3v-15c0-1.657 1.343-3 3-3h15c1.657 0 3 1.343 3 3v15c0 1.657-1.343 3-3 3z" fill="#4671c6"/><path d="m62.25 221.5h-15c-1.657 0-3-1.343-3-3v-15c0-1.657 1.343-3 3-3h15c1.657 0 3 1.343 3 3v15c0 1.657-1.343 3-3 3z" fill="#4671c6"/><path d="m94.25 221.5h-15c-1.657 0-3-1.343-3-3v-15c0-1.657 1.343-3 3-3h15c1.657 0 3 1.343 3 3v15c0 1.657-1.343 3-3 3z" fill="#4671c6"/><path d="m126.25 221.5h-15c-1.657 0-3-1.343-3-3v-15c0-1.657 1.343-3 3-3h15c1.657 0 3 1.343 3 3v15c0 1.657-1.343 3-3 3z" fill="#4671c6"/><path d="m205.333 161h-53c-3.314 0-6-2.686-6-6v-9c0-3.314 2.686-6 6-6h53c3.314 0 6 2.686 6 6v9c0 3.314-2.686 6-6 6z" fill="#e0ebfc"/><path d="m152.917 150.5c0-2.209 1.791-4 4-4h43.833c2.209 0 4 1.791 4 4 0 2.209-1.791 4-4 4h-43.833c-2.21 0-4-1.791-4-4z" fill="#f9a7a7"/><path d="m205.333 211h-53c-3.314 0-6-2.686-6-6v-18c0-3.314 2.686-6 6-6h53c3.314 0 6 2.686 6 6v18c0 3.314-2.686 6-6 6z" fill="#e0ebfc"/><path d="m152.917 200v-8c0-1.105.895-2 2-2h47.833c1.105 0 2 .895 2 2v8c0 1.105-.895 2-2 2h-47.833c-1.105 0-2-.895-2-2z" fill="#f9a7a7"/><path d="m72.292 52.167h-18c-1.105 0-2-.895-2-2v-10.334c0-1.105.895-2 2-2h18c1.105 0 2 .895 2 2v10.333c0 1.105-.896 2.001-2 2.001z" fill="#e0ebfc"/><path d="m72.292 80.167h-18c-1.105 0-2-.895-2-2v-10.334c0-1.105.895-2 2-2h18c1.105 0 2 .895 2 2v10.333c0 1.105-.896 2.001-2 2.001z" fill="#e0ebfc"/><path d="m72.292 108.167h-18c-1.105 0-2-.895-2-2v-10.334c0-1.105.895-2 2-2h18c1.105 0 2 .895 2 2v10.333c0 1.105-.896 2.001-2 2.001z" fill="#e0ebfc"/><path d="m201.292 52.167h-18c-1.105 0-2-.895-2-2v-10.334c0-1.105.895-2 2-2h18c1.105 0 2 .895 2 2v10.333c0 1.105-.896 2.001-2 2.001z" fill="#e0ebfc"/><path d="m201.292 80.167h-18c-1.105 0-2-.895-2-2v-10.334c0-1.105.895-2 2-2h18c1.105 0 2 .895 2 2v10.333c0 1.105-.896 2.001-2 2.001z" fill="#e0ebfc"/><path d="m201.292 108.167h-18c-1.105 0-2-.895-2-2v-10.334c0-1.105.895-2 2-2h18c1.105 0 2 .895 2 2v10.333c0 1.105-.896 2.001-2 2.001z" fill="#e0ebfc"/><path d="m106.04 84.456-1.522-4h-12.958l-1.522 4.087c-.595 1.595-1.102 2.671-1.522 3.228-.42.558-1.109.837-2.065.837-.812 0-1.529-.297-2.152-.891-.624-.594-.935-1.268-.935-2.022 0-.434.072-.883.218-1.347.145-.464.384-1.109.718-1.935l8.153-20.698c.232-.595.511-1.308.837-2.142s.674-1.525 1.044-2.076c.369-.55.855-.996 1.456-1.337s1.344-.511 2.229-.511c.899 0 1.649.17 2.25.511s1.087.779 1.457 1.315.681 1.113.935 1.728c.253.617.577 1.439.968 2.468l8.327 20.567c.652 1.565.978 2.703.978 3.414 0 .738-.308 1.416-.924 2.033-.616.616-1.359.923-2.229.923-.508 0-.942-.091-1.304-.271-.363-.181-.667-.427-.914-.74-.246-.311-.51-.79-.794-1.436-.284-.642-.527-1.211-.729-1.705zm-12.785-8.848h9.523l-4.804-13.153z" fill="#f9cfcf"/><path d="m134.456 61.518h-7.045v23.156c0 1.333-.297 2.322-.891 2.968-.594.644-1.363.967-2.305.967-.957 0-1.736-.326-2.337-.978-.602-.652-.902-1.638-.902-2.956v-23.157h-7.045c-1.102 0-1.921-.242-2.457-.728-.536-.485-.804-1.127-.804-1.924 0-.827.278-1.479.837-1.957.558-.479 1.366-.718 2.424-.718h20.524c1.116 0 1.946.247 2.489.74.544.493.815 1.138.815 1.935s-.276 1.439-.826 1.924c-.549.486-1.376.728-2.477.728z" fill="#f9cfcf"/><path d="m152.349 83.261-5.109-20.307v22.003c0 1.217-.272 2.13-.815 2.739-.544.609-1.265.913-2.164.913-.869 0-1.58-.301-2.13-.902-.551-.602-.826-1.518-.826-2.751v-25.22c0-1.392.362-2.33 1.087-2.816.725-.485 1.703-.728 2.935-.728h2c1.203 0 2.076.109 2.62.326.543.218.946.609 1.206 1.175.261.565.558 1.485.891 2.761l4.631 17.459 4.631-17.459c.333-1.276.63-2.196.892-2.761.261-.566.663-.957 1.206-1.175.543-.217 1.417-.326 2.62-.326h2.001c1.232 0 2.21.243 2.935.728.725.486 1.088 1.424 1.088 2.816v25.221c0 1.217-.272 2.13-.815 2.739-.544.609-1.272.913-2.185.913-.855 0-1.558-.304-2.109-.913s-.826-1.522-.826-2.739v-22.003l-5.109 20.307c-.334 1.32-.605 2.287-.815 2.902-.21.617-.598 1.178-1.163 1.686-.565.506-1.348.76-2.348.76-.754 0-1.391-.163-1.913-.489-.521-.326-.927-.742-1.217-1.25s-.519-1.069-.685-1.685c-.169-.616-.34-1.257-.514-1.924z" fill="#f9cfcf"/><g fill="#3762cc"><path d="m211 250h-166c-11.028 0-20-8.972-20-20v-204c0-11.028 8.972-20 20-20h166c11.028 0 20 8.972 20 20v204c0 11.028-8.972 20-20 20zm-166-240c-8.822 0-16 7.178-16 16v204c0 8.822 7.178 16 16 16h166c8.822 0 16-7.178 16-16v-204c0-8.822-7.178-16-16-16z"/><path d="m205.75 120h-155.5c-4.411 0-8-3.589-8-8v-78c0-4.411 3.589-8 8-8h155.5c4.411 0 8 3.589 8 8v78c0 4.411-3.589 8-8 8zm-155.5-90c-2.206 0-4 1.794-4 4v78c0 2.206 1.794 4 4 4h155.5c2.206 0 4-1.794 4-4v-78c0-2.206-1.794-4-4-4z"/><path d="m62.25 163.5h-15c-2.757 0-5-2.243-5-5v-15c0-2.757 2.243-5 5-5h15c2.757 0 5 2.243 5 5v15c0 2.757-2.243 5-5 5zm-15-21c-.551 0-1 .448-1 1v15c0 .552.449 1 1 1h15c.551 0 1-.448 1-1v-15c0-.552-.449-1-1-1z"/><path d="m94.25 163.5h-15c-2.757 0-5-2.243-5-5v-15c0-2.757 2.243-5 5-5h15c2.757 0 5 2.243 5 5v15c0 2.757-2.243 5-5 5zm-15-21c-.551 0-1 .448-1 1v15c0 .552.449 1 1 1h15c.551 0 1-.448 1-1v-15c0-.552-.449-1-1-1z"/><path d="m126.25 163.5h-15c-2.757 0-5-2.243-5-5v-15c0-2.757 2.243-5 5-5h15c2.757 0 5 2.243 5 5v15c0 2.757-2.243 5-5 5zm-15-21c-.551 0-1 .448-1 1v15c0 .552.449 1 1 1h15c.551 0 1-.448 1-1v-15c0-.552-.449-1-1-1z"/><path d="m62.25 193.5h-15c-2.757 0-5-2.243-5-5v-15c0-2.757 2.243-5 5-5h15c2.757 0 5 2.243 5 5v15c0 2.757-2.243 5-5 5zm-15-21c-.551 0-1 .448-1 1v15c0 .552.449 1 1 1h15c.551 0 1-.448 1-1v-15c0-.552-.449-1-1-1z"/><path d="m94.25 193.5h-15c-2.757 0-5-2.243-5-5v-15c0-2.757 2.243-5 5-5h15c2.757 0 5 2.243 5 5v15c0 2.757-2.243 5-5 5zm-15-21c-.551 0-1 .448-1 1v15c0 .552.449 1 1 1h15c.551 0 1-.448 1-1v-15c0-.552-.449-1-1-1z"/><path d="m126.25 193.5h-15c-2.757 0-5-2.243-5-5v-15c0-2.757 2.243-5 5-5h15c2.757 0 5 2.243 5 5v15c0 2.757-2.243 5-5 5zm-15-21c-.551 0-1 .448-1 1v15c0 .552.449 1 1 1h15c.551 0 1-.448 1-1v-15c0-.552-.449-1-1-1z"/><path d="m62.25 223.5h-15c-2.757 0-5-2.243-5-5v-15c0-2.757 2.243-5 5-5h15c2.757 0 5 2.243 5 5v15c0 2.757-2.243 5-5 5zm-15-21c-.551 0-1 .448-1 1v15c0 .552.449 1 1 1h15c.551 0 1-.448 1-1v-15c0-.552-.449-1-1-1z"/><path d="m94.25 223.5h-15c-2.757 0-5-2.243-5-5v-15c0-2.757 2.243-5 5-5h15c2.757 0 5 2.243 5 5v15c0 2.757-2.243 5-5 5zm-15-21c-.551 0-1 .448-1 1v15c0 .552.449 1 1 1h15c.551 0 1-.448 1-1v-15c0-.552-.449-1-1-1z"/><path d="m126.25 223.5h-15c-2.757 0-5-2.243-5-5v-15c0-2.757 2.243-5 5-5h15c2.757 0 5 2.243 5 5v15c0 2.757-2.243 5-5 5zm-15-21c-.551 0-1 .448-1 1v15c0 .552.449 1 1 1h15c.551 0 1-.448 1-1v-15c0-.552-.449-1-1-1z"/><path d="m205.333 163h-53c-4.411 0-8-3.589-8-8v-9c0-4.411 3.589-8 8-8h53c4.411 0 8 3.589 8 8v9c0 4.411-3.588 8-8 8zm-53-21c-2.206 0-4 1.794-4 4v9c0 2.206 1.794 4 4 4h53c2.206 0 4-1.794 4-4v-9c0-2.206-1.794-4-4-4z"/><path d="m205.333 213h-53c-4.411 0-8-3.589-8-8v-18c0-4.411 3.589-8 8-8h53c4.411 0 8 3.589 8 8v18c0 4.411-3.588 8-8 8zm-53-30c-2.206 0-4 1.794-4 4v18c0 2.206 1.794 4 4 4h53c2.206 0 4-1.794 4-4v-18c0-2.206-1.794-4-4-4z"/></g><path d="m197.333 240h-37c-2.209 0-4-1.791-4-4v-40h45v40c0 2.209-1.791 4-4 4z" fill="#ffea92"/><path d="m165.333 196h11v44h-11z" fill="#4671c6"/><path d="m197.333 242h-37c-3.309 0-6-2.691-6-6v-40c0-1.104.896-2 2-2h45c1.104 0 2 .896 2 2v40c0 3.309-2.691 6-6 6zm-39-44v38c0 1.103.897 2 2 2h37c1.103 0 2-.897 2-2v-38z" fill="#3762cc"/></svg>