<svg id="flat" height="512" viewBox="0 0 512 512" width="512" xmlns="http://www.w3.org/2000/svg"><path d="m24 400h96v88h-96z" fill="#486be0"/><path d="m288 236.95351-41.92351-24.45541h-124.153l-82.04738 47.861a32 32 0 0 0 -15.87611 27.6409v112a88 88 0 0 0 88 88h176z" fill="#548aff"/><path d="m488 240v232a16 16 0 0 1 -16 16h-184v-248z" fill="#c8dbf7"/><path d="m288 240v-32a16 16 0 0 1 16-16h168a16 16 0 0 1 16 16v32z" fill="#517ef7"/><g fill="#486be0"><circle cx="320" cy="216" r="8"/><circle cx="344" cy="216" r="8"/><circle cx="368" cy="216" r="8"/></g><path d="m392 408h40v16h-40z" fill="#a2b8e0"/><path d="m352 408h24v16h-24z" fill="#a2b8e0"/><path d="m440 304v48l-32 24h-32l-32-24v-48z" fill="#f6bb00"/><path d="m392 336 48-32-48-32-48 32z" fill="#de9400"/><path d="m264 440h-24a8.00091 8.00091 0 0 1 -1.39062-.12158l-109.56153-19.33442a39.94262 39.94262 0 0 1 -33.04785-39.39117v-45.15283h16v45.15283a23.96472 23.96472 0 0 0 19.8291 23.63428l108.8711 19.21289h23.2998z" fill="#517ef7"/><path d="m224 72v-24a24 24 0 0 0 -24-24h-32a56 56 0 0 0 -56 56v16l18.34315-18.34315a19.31369 19.31369 0 0 1 13.65685-5.65685 19.31369 19.31369 0 0 1 13.65684 5.65685l12.68631 12.6863a19.31366 19.31366 0 0 0 13.65685 5.65685 19.31369 19.31369 0 0 0 13.65684-5.65685l12.6863-12.6863a19.31369 19.31369 0 0 1 13.65686-5.65685z" fill="#b1712c"/><path d="m232 40a24 24 0 0 1 24 24v32l-18.34314-18.34315a19.3137 19.3137 0 0 0 -13.65686-5.65685v-24a8 8 0 0 1 8-8z" fill="#a36522"/><path d="m256 96v80.00007a71.99993 71.99993 0 0 1 -71.99993 71.99993h-.00014a71.99993 71.99993 0 0 1 -71.99993-71.99993v-80.00007l18.34315-18.34315a19.31369 19.31369 0 0 1 13.65685-5.65685 19.31369 19.31369 0 0 1 13.65684 5.65685l12.68631 12.6863a19.31366 19.31366 0 0 0 13.65685 5.65685 19.31369 19.31369 0 0 0 13.65684-5.65685l12.6863-12.6863a19.31369 19.31369 0 0 1 13.65686-5.65685 19.31369 19.31369 0 0 1 13.65684 5.65685z" fill="#f5c99d"/><path d="m136 120h32v16h-32z" fill="#b1712c"/><circle cx="152" cy="152" fill="#a36522" r="8"/><path d="m200 120h32v16h-32z" fill="#b1712c"/><circle cx="216" cy="152" fill="#a36522" r="8"/><path d="m176 208h-8v-16h8a8.00917 8.00917 0 0 0 8-8v-16h16v16a24.0275 24.0275 0 0 1 -24 24z" fill="#c79369"/><path d="m240 432 49.58347-35.41676a13.09672 13.09672 0 0 1 13.46935-1.05683 13.09675 13.09675 0 0 1 6.98537 14.28255l-6.03819 30.19104 13.38539 6.6927a64.0001 64.0001 0 0 0 39.14321 5.88587l19.97546-3.32925a10.2892 10.2892 0 0 1 10.89447 5.54773 10.28919 10.28919 0 0 1 -4.60146 13.8044l-25.28375 12.64187a64 64 0 0 1 -28.62167 6.75668h-88.89165z" fill="#f5c99d"/></svg>