<svg width="80" height="73" viewBox="0 0 80 73" fill="none" xmlns="http://www.w3.org/2000/svg">
<defs>
<linearGradient id="paint0_linear" x1="5.69143" y1="19.3746" x2="75.2211" y2="44.8976" gradientUnits="userSpaceOnUse">
<stop stop-color="#F58C30"/>
<stop offset="1" stop-color="#FBE00B"/>
</linearGradient>
<linearGradient id="paint1_linear" x1="60.1314" y1="54.2491" x2="6.25436" y2="26.4221" gradientUnits="userSpaceOnUse">
<stop stop-color="#EFB239"/>
<stop offset="1" stop-color="#F47E36"/>
</linearGradient>
</defs>
<path d="M33.0466 1.67771L16.8179 10.0748L14.3984 11.7907C10.4324 14.6034 8.07567 19.1639 8.07567 24.0261V48.1627C8.07567 53.3875 10.7944 58.2359 15.2523 60.961L31.0977 70.647C33.4532 72.0868 36.1604 72.8487 38.9211 72.8487H49.1002C51.8951 72.8487 54.6345 72.0678 57.0093 70.5942L72.5117 60.9742C76.9208 58.2382 79.6026 53.4178 79.6026 48.2288V24.8146C79.6026 19.5203 76.8117 14.6181 72.2589 11.9158L55.7238 2.10112C53.4067 0.725798 50.762 0 48.0675 0H39.9399C37.541 0 35.1772 0.575329 33.0466 1.67771Z" fill="#2755B9"/>
<path d="M20.3942 40.2993C36.607 47.4292 29.5338 59.2865 24.7653 66.6488L33.5075 72.0737L50.1971 50.7616L20.3942 40.2993Z" fill="black" fill-opacity="0.3"/>
<path d="M3.37489 12.4799C3.93167 14.4309 7.7886 16.2448 9.9145 16.998C10.002 17.029 10.097 16.9947 10.1476 16.9169C12.7243 12.9467 18.0362 9.67455 20.3942 8.52487L35.1983 0.751598C35.3817 0.655306 35.3057 0.380101 35.0986 0.379202C14.5832 0.290133 5.59576 10.0478 3.68943 11.7648C3.55794 11.8833 3.32633 12.3098 3.37489 12.4799Z" fill="#F04E49"/>
<path d="M35.4943 17.8247C21.1889 15.6547 8.73796 12.5289 5.29407 10.4623C0.207703 14.1822 3.17476 17.1789 3.30722 18.2122L79.6027 38.7493C79.4702 35.2619 79.2848 26.427 79.6027 26.737C77.6158 22.8621 35.097 17.4372 35.4943 17.8247Z" fill="black" fill-opacity="0.3"/>
<path d="M31.1781 34.5002C68.9764 43.6553 69.4466 58.4477 64.4855 65.6333C64.3558 65.8212 64.6001 66.0908 64.7935 65.9696C67.2818 64.4096 70.6922 62.2494 72.3188 61.151C72.5056 61.0249 74.1309 60.0867 74.3315 59.984C78.0001 58.1056 79.6274 53.9556 79.9969 51.9411C79.999 51.9294 80 51.9186 80 51.9066V37.7073C80 37.5252 79.7751 36.9589 79.6477 36.8288C72.3813 29.4107 58.0797 28.1931 29.9311 22.4746C4.54684 17.3177 3.561 12.7708 3.66147 12.0815C3.6725 12.0058 3.66157 12.0322 3.59514 12.0701C1.48299 13.2746 0.346008 19.0209 0.763218 19.71C0.818156 19.8008 0.961388 19.8315 1.01539 19.9228C5.9338 28.2386 30.0213 33.9361 31.0912 34.4669C31.1234 34.4829 31.1432 34.4917 31.1781 34.5002Z" fill="url(#paint0_linear)"/>
<path d="M52.5813 40.6868C73.8432 48.7326 68.627 60.6655 64.524 65.8467C64.5094 65.8651 64.4935 65.8793 64.4735 65.8916C63.3849 66.5581 60.1852 68.6805 57.3498 70.5238C54.5154 72.3664 52.097 72.9667 51.4082 72.8522C51.3949 72.8499 51.3824 72.8488 51.369 72.8489L35.3111 72.9995C35.2749 72.9998 35.2404 72.9909 35.209 72.973C34.6598 72.6613 33.1667 71.9484 33.1488 71.6206C33.0825 71.6395 33.0085 71.6252 33.0583 71.5877C33.082 71.5698 33.1255 71.5537 33.1847 71.5393C33.2121 71.5149 33.256 71.4949 33.3185 71.4801C41.3898 63.3809 42.1992 49.0606 36.2891 46.4992C31.2557 44.5617 18.7252 39.6018 8.87041 35.2619C-2.88178 31.1954 0.194654 19.37 0.847418 18.2912C0.885381 18.2285 0.943368 18.2503 0.979454 18.3141C4.61801 24.7509 21.4157 30.423 22.3476 30.9759C22.3776 30.9937 22.3985 31.004 22.4323 31.0127C35.9319 34.5016 51.7876 40.2998 52.5813 40.6868Z" fill="url(#paint1_linear)"/>
</svg>
