<svg id="Capa_1" enable-background="new 0 0 512 512" height="512" viewBox="0 0 512 512" width="512" xmlns="http://www.w3.org/2000/svg"><g><g><path d="m463.281 427h-127.647l-80.333-13.918-78.935 13.918h-127.647c-5.523 0-10-4.477-10-10v-35.916l8.468-34.451-8.468-37.278v-115.722h434.562v115.722l-5 37.278 5 34.451v35.916c0 5.522-4.477 10-10 10z" fill="#4a80aa"/></g><g><path d="m447.244 193.633v197.048c0 5.679-4.603 10.282-10.282 10.282h-398.243v15.755c0 5.679 4.603 10.282 10.282 10.282h127.365l78.936-13.918 80.332 13.918h127.365c5.678 0 10.282-4.603 10.282-10.282v-35.634l-5-34.451 5-37.278v-115.722z" fill="#407093"/></g><g><path d="m502 209.854h-492c-5.523 0-10-4.477-10-10v-34.364c0-5.523 4.477-10 10-10h492c5.523 0 10 4.477 10 10v34.365c0 5.522-4.477 9.999-10 9.999z" fill="#365e7d"/></g><g><path d="m501.718 155.49h-9.998v23.803c0 5.678-4.603 10.282-10.282 10.282h-481.438v9.998c0 5.679 4.603 10.282 10.282 10.282h491.437c5.678 0 10.282-4.603 10.282-10.282v-33.801c-.001-5.679-4.604-10.282-10.283-10.282z" fill="#2b4d66"/></g><g><path d="m335.634 427h-159.268v-108.46c0-5.523 4.477-10 10-10h139.269c5.523 0 10 4.477 10 10v108.46z" fill="#e7ecf6"/></g><g><path d="m325.353 308.54h-25.692c5.678 0 10.282 4.603 10.282 10.282v108.178h25.692v-108.179c-.001-5.678-4.604-10.281-10.282-10.281z" fill="#d8e2f1"/></g><g><path d="m473.281 309.355h-90.173c-5.678 0-10.282 4.603-10.282 10.282v51.165c0 5.679 4.603 10.282 10.282 10.282h90.173z" fill="#90d8f9"/></g><g><path d="m447.244 309.355h26.037v71.729h-26.037z" fill="#75cef9"/></g><g><path d="m126.579 309.355h-87.86v71.729h87.86c5.678 0 10.282-4.603 10.282-10.282v-51.165c0-5.678-4.604-10.282-10.282-10.282z" fill="#90d8f9"/></g><g><path d="m423.054 399.456c-4.259 0-7.711-3.453-7.711-7.711v-90.222c0-4.259 3.453-7.711 7.711-7.711s7.711 3.453 7.711 7.711v90.222c0 4.258-3.453 7.711-7.711 7.711z" fill="#4a80aa"/></g><g><path d="m87.79 399.456c-4.259 0-7.711-3.453-7.711-7.711v-90.222c0-4.259 3.453-7.711 7.711-7.711s7.711 3.453 7.711 7.711v90.222c0 4.258-3.452 7.711-7.711 7.711z" fill="#4a80aa"/></g><g><path d="m247.164 305.455h15.423v121.986h-15.423z" fill="#4a80aa"/></g><g><path d="m119.166 273.075v-26.584l3.022-17.909-3.022-22.238v-33.962l2.164-16.449-2.164-23.698v-34.961l6.982-8.666h260.231l6.051 40.439v32.965l-3 18.476 3 21.671v33.962l-3 17.211 3 19.743-.579.965z" fill="#b9cbea"/></g><g><path d="m382.449 84.559h-9.114v24.014c0 1.657.686 3.239 1.896 4.372l17.199 16.102v-34.507c0-5.513-4.469-9.981-9.981-9.981z" fill="#dd636e"/></g><g><path d="m373.84 223.32v32.947c0 1.657.686 3.239 1.896 4.372l14.48 13.415 2.214-.979v-36.954l-15.229-14.258c-1.275-1.194-3.361-.29-3.361 1.457z" fill="#dd636e"/></g><g><path d="m136.365 222.447-17.199-16.102v40.147l15.734 14.731c1.275 1.194 3.361.29 3.361-1.457v-32.947c-.001-1.657-.687-3.24-1.896-4.372z" fill="#90d8f9"/></g><g><path d="m136.365 148.337-17.199-16.102v40.147l15.734 14.731c1.275 1.194 3.361.29 3.361-1.457v-32.947c-.001-1.657-.687-3.24-1.896-4.372z" fill="#dd636e"/></g><g><path d="m138.26 101.668-12.112-13.008-5.027-.056c-1.229 1.659-1.956 3.713-1.956 5.936v2.734l15.683 15.783c1.256 1.264 3.412.375 3.412-1.407z" fill="#90d8f9"/></g><g><path d="m373.335 148.738v32.947c0 1.657.686 3.239 1.896 4.372l17.199 16.102v-40.147l-15.734-14.731c-1.275-1.194-3.361-.29-3.361 1.457z" fill="#90d8f9"/></g><path d="m392.43 273.075-131.585-137.995c-2.748-2.882-7.346-2.882-10.094 0l-131.585 137.995v.986l13.897 3.459 15.339 6.522h33.788l20.81-4.647 19.337 4.647h32.964l20.636-4.272 19.511 4.272h33.138l22.538-2.632 17.609 2.632h13.715c5.512 0 9.981-4.469 9.981-9.981v-.986z" fill="#d8e2f1"/><g><path d="m271.404 266.843-16.102 17.199h40.147l14.731-15.734c1.194-1.275.29-3.361-1.457-3.361h-32.947c-1.657 0-3.24.686-4.372 1.896z" fill="#dd636e"/></g><g><path d="m198.293 266.843-16.102 17.199h40.147l14.731-15.734c1.194-1.275.29-3.361-1.457-3.361h-32.947c-1.657 0-3.24.686-4.372 1.896z" fill="#90d8f9"/></g><g><path d="m126.739 265.133-7.574 7.943v.985c0 5.512 4.469 9.981 9.981 9.981h19.255l14.557-15.549c1.194-1.275.29-3.361-1.457-3.361h-34.762z" fill="#dd636e"/></g><g><path d="m344.515 267.028-15.929 17.013h40.147l16.92-18.072-.798-.837h-35.969c-1.656.001-3.238.687-4.371 1.896z" fill="#90d8f9"/></g><g><path d="m377.375 88.308-19.185-3.75h-32.964l-20.976 3-19.171-3h-32.964l-21.411 3-18.736-3h-33.962l-22.114 3-18.033-3h-8.711c-3.289 0-6.197 1.598-8.016 4.052l128.127 134.37c3.56 3.734 9.518 3.734 13.078 0l128.128-134.369c-1.819-2.454-13.09-.303-13.09-.303z" fill="#e7ecf6"/></g><g><path d="m161.902 101.758 16.103-17.199h-40.147l-10.201 10.896 7.818 8.199h22.056c1.656 0 3.239-.687 4.371-1.896z" fill="#dd636e"/></g><g><path d="m236.012 101.758 16.103-17.199h-40.147l-14.731 15.734c-1.194 1.275-.29 3.361 1.457 3.361h32.947c1.656 0 3.239-.687 4.371-1.896z" fill="#90d8f9"/></g><g><path d="m309.123 101.758 16.103-17.199h-40.147l-14.731 15.734c-1.194 1.275-.29 3.361 1.457 3.361h32.947c1.656 0 3.239-.687 4.371-1.896z" fill="#dd636e"/></g><g><path d="m376.121 103.654 14.344-15.043c-1.818-2.454-4.727-4.052-8.016-4.052h-24.259l-14.731 15.734c-1.194 1.275-.29 3.361 1.457 3.361z" fill="#90d8f9"/></g></g></svg>